<svg width="32" height="31" viewBox="0 0 32 31" fill="none" xmlns="http://www.w3.org/2000/svg">
<g clip-path="url(#clip0_2_330)">
<path d="M32 15.3645C32 6.93093 24.836 0.0932617 16 0.0932617C7.164 0.0932617 0 6.93093 0 15.3645C0 22.9873 5.85067 29.3045 13.5 30.4498V19.7791H9.43733V15.3631H13.5V12.001C13.5 8.17425 15.8893 6.05919 19.544 6.05919C21.2933 6.05919 23.1253 6.35826 23.1253 6.35826V10.1162H21.1067C19.1187 10.1162 18.4987 11.2934 18.4987 12.5011V15.3645H22.936L22.2267 19.7803H18.4987V30.451C26.1493 29.3045 32 22.986 32 15.3645Z" fill="white"/>
</g>
<defs>
<clipPath id="clip0_2_330">
<rect width="32" height="30.5423" fill="white"/>
</clipPath>
</defs>
</svg>
