<svg width="32" height="31" viewBox="0 0 32 31" fill="none" xmlns="http://www.w3.org/2000/svg">
<g clip-path="url(#clip0_2_332)">
<path d="M16 0C11.6533 0 11.1107 0.019089 9.404 0.091627C7.7 0.167983 6.54 0.423775 5.52 0.801736C4.468 1.19115 3.57467 1.71419 2.68533 2.56301C1.796 3.41184 1.24667 4.2632 0.84 5.26855C0.444 6.24209 0.174667 7.34925 0.096 8.97563C0.016 10.6046 0 11.1225 0 15.2712C0 19.4199 0.02 19.9377 0.096 21.5667C0.176 23.1918 0.444 24.3002 0.84 25.2738C1.248 26.2766 1.796 27.1305 2.68533 27.9793C3.57467 28.8269 4.46667 29.3524 5.52 29.7406C6.54133 30.1173 7.70133 30.3756 9.404 30.4507C11.1107 30.5271 11.6533 30.5423 16 30.5423C20.3467 30.5423 20.8893 30.5232 22.596 30.4507C24.2987 30.3743 25.46 30.1173 26.48 29.7406C27.5307 29.3512 28.4253 28.8269 29.3147 27.9793C30.2027 27.1305 30.7533 26.2804 31.16 25.2738C31.5547 24.3002 31.8253 23.1918 31.904 21.5667C31.984 19.9377 32 19.4199 32 15.2712C32 11.1225 31.98 10.6046 31.904 8.97563C31.824 7.35052 31.5547 6.24082 31.16 5.26855C30.752 4.26447 30.2027 3.41184 29.3147 2.56301C28.4253 1.71419 27.5347 1.18988 26.48 0.801736C25.46 0.423775 24.2987 0.166711 22.596 0.091627C20.8893 0.0152712 20.3467 0 16 0ZM16 2.74881C20.2707 2.74881 20.78 2.76917 22.4667 2.83917C24.0267 2.90916 24.8733 3.15604 25.436 3.36729C26.1853 3.64344 26.716 3.97432 27.2787 4.50754C27.8373 5.04203 28.184 5.5498 28.4733 6.26499C28.692 6.80203 28.9533 7.61013 29.024 9.09906C29.1 10.7101 29.1173 11.1938 29.1173 15.2712C29.1173 19.3486 29.0973 19.8334 29.0187 21.4433C28.9373 22.9322 28.6773 23.7403 28.4573 24.2773C28.1587 24.9925 27.8187 25.499 27.2587 26.0361C26.7 26.5692 26.16 26.9002 25.4187 27.1763C24.8587 27.385 23.9987 27.6344 22.4387 27.7019C20.74 27.7744 20.24 27.7909 15.96 27.7909C11.6787 27.7909 11.1787 27.7718 9.48133 27.6968C7.92 27.6191 7.06 27.371 6.5 27.161C5.74133 26.876 5.22 26.5515 4.66133 26.017C4.1 25.4838 3.74133 24.9683 3.46133 24.2608C3.24133 23.7263 2.98267 22.9055 2.90133 21.4166C2.84133 19.8131 2.82 19.318 2.82 15.2521C2.82 11.1849 2.84133 10.6886 2.90133 9.06598C2.98267 7.57704 3.24133 6.75749 3.46133 6.223C3.74133 5.49762 4.1 5.00131 4.66133 4.46555C5.22 3.93232 5.74133 3.58872 6.5 3.32275C7.06 3.1115 7.90133 2.86334 9.46133 2.78699C11.1613 2.72972 11.6613 2.71063 15.94 2.71063L16 2.74881ZM16 7.42942C11.46 7.42942 7.784 10.9418 7.784 15.2712C7.784 19.6044 11.464 23.1129 16 23.1129C20.54 23.1129 24.216 19.6005 24.216 15.2712C24.216 10.938 20.536 7.42942 16 7.42942ZM16 20.3615C13.0533 20.3615 10.6667 18.0836 10.6667 15.2712C10.6667 12.4587 13.0533 10.1808 16 10.1808C18.9467 10.1808 21.3333 12.4587 21.3333 15.2712C21.3333 18.0836 18.9467 20.3615 16 20.3615ZM26.4613 7.12018C26.4613 8.13189 25.6 8.95272 24.5413 8.95272C23.4813 8.95272 22.6213 8.13062 22.6213 7.12018C22.6213 6.10973 23.4827 5.28891 24.5413 5.28891C25.5987 5.28764 26.4613 6.10973 26.4613 7.12018Z" fill="white"/>
</g>
<defs>
<clipPath id="clip0_2_332">
<rect width="32" height="30.5423" fill="white"/>
</clipPath>
</defs>
</svg>
