<svg width="32" height="31" viewBox="0 0 32 31" fill="none" xmlns="http://www.w3.org/2000/svg">
<path d="M31.3307 7.87216C31.1499 7.22221 30.7934 6.62901 30.2968 6.15194C29.8003 5.67488 29.1811 5.33071 28.5013 5.1539C26.0067 4.51123 16 4.51123 16 4.51123C16 4.51123 5.99333 4.51123 3.49733 5.1539C2.81788 5.33102 2.19906 5.67532 1.70277 6.15235C1.20648 6.62938 0.850122 7.22242 0.669333 7.87216C0 10.2697 0 15.271 0 15.271C0 15.271 0 20.2723 0.669333 22.6699C0.850115 23.3199 1.20663 23.9131 1.70319 24.3901C2.19974 24.8672 2.8189 25.2113 3.49867 25.3882C5.99333 26.0308 16 26.0308 16 26.0308C16 26.0308 26.0067 26.0308 28.5027 25.3882C29.1825 25.2115 29.8017 24.8673 30.2983 24.3903C30.7949 23.9132 31.1513 23.3199 31.332 22.6699C32 20.2723 32 15.271 32 15.271C32 15.271 32 10.2697 31.3307 7.87216ZM12.7267 19.8116V10.7304L21.0907 15.271L12.7267 19.8116Z" fill="white"/>
</svg>
