<svg width="24" height="24" viewBox="0 0 24 24" fill="none" xmlns="http://www.w3.org/2000/svg">
<rect width="24" height="24" rx="2" fill="#FF00FF"/>
<path fill-rule="evenodd" clip-rule="evenodd" d="M18 9.16304C17.9963 9.34443 17.9258 9.51828 17.8017 9.65217L12.1488 15.2283L11.0579 16.3043C10.9221 16.4268 10.7459 16.4963 10.562 16.5C10.3781 16.4963 10.2019 16.4268 10.0661 16.3043L8.97521 15.2283L6.19835 12.4891C6.07424 12.3552 6.00374 12.1814 6 12C6.00374 11.8186 6.07424 11.6448 6.19835 11.5109L7.28926 10.4348C7.42499 10.3124 7.60124 10.2428 7.78512 10.2391C7.96901 10.2428 8.14525 10.3124 8.28099 10.4348L10.562 12.6848L15.6198 7.69565C15.7556 7.57323 15.9318 7.50369 16.1157 7.5C16.2996 7.50369 16.4758 7.57323 16.6116 7.69565L17.7025 8.77174C17.9008 8.86957 18 8.96739 18 9.16304Z" fill="white"/>
</svg>
